<?xml version="1.0" encoding="utf-8"?>
<!-- Generator: Adobe Illustrator 21.0.0, SVG Export Plug-In . SVG Version: 6.00 Build 0)  -->
<svg version="1.1" id="Capa_1" xmlns="http://www.w3.org/2000/svg" xmlns:xlink="http://www.w3.org/1999/xlink" x="0px" y="0px"
	 viewBox="0 0 200 200" style="enable-background:new 0 0 200 200;" xml:space="preserve">
<style type="text/css">
	.st0{fill:#0ACF83;}
	.st1{fill:#A259FF;}
	.st2{fill:#F24E1E;}
	.st3{fill:#FF7262;}
	.st4{fill:#1ABCFE;}
</style>
<g>
	<path id="path0_fill" class="st0" d="M67.2,198.8c18.3,0,33.1-14.8,33.1-33.1v-33.1H67.2c-18.3,0-33.1,14.8-33.1,33.1
		S48.9,198.8,67.2,198.8z"/>
	<path id="path1_fill" class="st1" d="M34.1,99.6c0-18.3,14.8-33.1,33.1-33.1h33.1v66.1H67.2C48.9,132.7,34.1,117.9,34.1,99.6z"/>
	<path id="path1_fill_1_" class="st2" d="M34.1,33.5c0-18.3,14.8-33.1,33.1-33.1h33.1v66.1H67.2C48.9,66.5,34.1,51.7,34.1,33.5z"/>
	<path id="path2_fill" class="st3" d="M100.2,0.4h33.1c18.3,0,33.1,14.8,33.1,33.1s-14.8,33.1-33.1,33.1h-33.1V0.4z"/>
	<path id="path3_fill" class="st4" d="M166.4,99.6c0,18.3-14.8,33.1-33.1,33.1s-33.1-14.8-33.1-33.1s14.8-33.1,33.1-33.1
		S166.4,81.4,166.4,99.6z"/>
</g>
</svg>
