<?xml version="1.0" encoding="utf-8"?>
<!-- Generator: Adobe Illustrator 21.0.0, SVG Export Plug-In . SVG Version: 6.00 Build 0)  -->
<svg version="1.1" id="Capa_1" xmlns="http://www.w3.org/2000/svg" xmlns:xlink="http://www.w3.org/1999/xlink" x="0px" y="0px"
	 viewBox="0 0 200 200" style="enable-background:new 0 0 200 200;" xml:space="preserve">
<style type="text/css">
	.st0{fill:#1B1F23;}
</style>
<path class="st0" d="M100,0C44.8,0,0,44.8,0,100c0,44.2,28.6,81.6,68.4,94.9c5,0.9,6.9-2.1,6.9-4.8c0-2.4-0.1-10.2-0.1-18.6
	c-25.1,4.6-31.6-6.1-33.6-11.8c-1.1-2.9-6-11.8-10.2-14.1c-3.5-1.9-8.5-6.5-0.1-6.6c7.9-0.1,13.5,7.2,15.4,10.2
	c9,15.1,23.4,10.9,29.1,8.2c0.9-6.5,3.5-10.9,6.4-13.4c-22.2-2.5-45.5-11.1-45.5-49.4c0-10.9,3.9-19.9,10.2-26.9
	c-1-2.5-4.5-12.8,1-26.5c0,0,8.4-2.6,27.5,10.2c8-2.2,16.5-3.4,25-3.4c8.5,0,17,1.1,25,3.4c19.1-13,27.5-10.2,27.5-10.2
	c5.5,13.8,2,24,1,26.5c6.4,7,10.2,15.9,10.2,26.9c0,38.4-23.4,46.9-45.6,49.4c3.6,3.1,6.8,9.1,6.8,18.5c0,13.4-0.1,24.1-0.1,27.5
	c0,2.6,1.9,5.8,6.9,4.8c39.5-13.2,68.1-50.8,68.1-94.9C200,44.8,155.2,0,100,0z"/>
</svg>
