<?xml version="1.0" encoding="utf-8"?>
<!-- Generator: Adobe Illustrator 21.0.0, SVG Export Plug-In . SVG Version: 6.00 Build 0)  -->
<svg version="1.1" id="Capa_1" xmlns="http://www.w3.org/2000/svg" xmlns:xlink="http://www.w3.org/1999/xlink" x="0px" y="0px"
	 viewBox="0 0 200 200" style="enable-background:new 0 0 200 200;" xml:space="preserve">
<style type="text/css">
	.st0{fill:#E34F26;}
	.st1{fill:#EF652A;}
	.st2{fill:#ECEDEE;}
	.st3{fill:#FFFFFF;}
</style>
<g>
	<path class="st0" d="M27.9,179.7L11.9,0h176.2l-16,179.7L99.8,200"/>
	<path class="st1" d="M100.2,184.4l58.2-16l13.7-153.9h-71.9"/>
	<path class="st2" d="M100.2,81.2H70.9l-2-22.7h31.2V36.7H44.7l5.9,66.8h49.6V81.2z M100.2,138.7l-25-6.6l-1.6-17.6H51.8l2.7,34.8
		l45.7,12.5V138.7z"/>
	<path class="st3" d="M100.2,103.5h27l-2.7,28.5l-24.2,6.6v23l44.9-12.5l6.2-68h-51.2V103.5z M100.2,36.7v21.9h53.1l2-21.9H100.2z"
		/>
</g>
</svg>
