<?xml version="1.0" encoding="utf-8"?>
<!-- Generator: Adobe Illustrator 21.0.0, SVG Export Plug-In . SVG Version: 6.00 Build 0)  -->
<svg version="1.1" id="Capa_1" xmlns="http://www.w3.org/2000/svg" xmlns:xlink="http://www.w3.org/1999/xlink" x="0px" y="0px"
	 viewBox="0 0 200 200" style="enable-background:new 0 0 200 200;" xml:space="preserve">
<style type="text/css">
	.st0{fill:url(#SVGID_1_);}
	.st1{fill:url(#SVGID_2_);}
	.st2{fill:url(#SVGID_3_);}
	.st3{fill:url(#SVGID_4_);}
	.st4{fill:#FFFFFF;}
</style>
<g>
	<g>
		
			<linearGradient id="SVGID_1_" gradientUnits="userSpaceOnUse" x1="2.2835" y1="87.3458" x2="95.0507" y2="87.3458" gradientTransform="matrix(1 0 0 -1 0 202)">
			<stop  offset="0.2581" style="stop-color:#F97A12"/>
			<stop  offset="0.4591" style="stop-color:#B07B58"/>
			<stop  offset="0.7241" style="stop-color:#577BAE"/>
			<stop  offset="0.9105" style="stop-color:#1E7CE5"/>
			<stop  offset="1" style="stop-color:#087CFA"/>
		</linearGradient>
		<polygon class="st0" points="50.5,156 2.3,117.8 26.3,73.3 95.1,100.1 		"/>
		
			<linearGradient id="SVGID_2_" gradientUnits="userSpaceOnUse" x1="73.516" y1="130.7283" x2="226.6721" y2="45.9819" gradientTransform="matrix(1 0 0 -1 0 202)">
			<stop  offset="0" style="stop-color:#F97A12"/>
			<stop  offset="7.179946e-02" style="stop-color:#CB7A3E"/>
			<stop  offset="0.1541" style="stop-color:#9E7B6A"/>
			<stop  offset="0.242" style="stop-color:#757B91"/>
			<stop  offset="0.3344" style="stop-color:#537BB1"/>
			<stop  offset="0.4324" style="stop-color:#387CCC"/>
			<stop  offset="0.5381" style="stop-color:#237CE0"/>
			<stop  offset="0.6552" style="stop-color:#147CEF"/>
			<stop  offset="0.7925" style="stop-color:#0B7CF7"/>
			<stop  offset="1" style="stop-color:#087CFA"/>
		</linearGradient>
		<polygon class="st1" points="199.8,53.6 196.1,169.2 119.3,200 73.1,170.3 140.7,100.1 111,35.3 137.6,3.3 		"/>
		
			<linearGradient id="SVGID_3_" gradientUnits="userSpaceOnUse" x1="180.4999" y1="79.318" x2="137.863" y2="206.7214" gradientTransform="matrix(1 0 0 -1 0 202)">
			<stop  offset="0" style="stop-color:#FE315D"/>
			<stop  offset="7.840246e-02" style="stop-color:#CB417E"/>
			<stop  offset="0.1601" style="stop-color:#9E4E9B"/>
			<stop  offset="0.2474" style="stop-color:#755BB4"/>
			<stop  offset="0.3392" style="stop-color:#5365CA"/>
			<stop  offset="0.4365" style="stop-color:#386DDB"/>
			<stop  offset="0.5414" style="stop-color:#2374E9"/>
			<stop  offset="0.6576" style="stop-color:#1478F3"/>
			<stop  offset="0.794" style="stop-color:#0B7BF8"/>
			<stop  offset="1" style="stop-color:#087CFA"/>
		</linearGradient>
		<polygon class="st2" points="199.8,53.6 139,125.5 111,35.3 137.6,3.3 		"/>
		
			<linearGradient id="SVGID_4_" gradientUnits="userSpaceOnUse" x1="30.5161" y1="154.7354" x2="158.4015" y2="-56.7938" gradientTransform="matrix(1 0 0 -1 0 202)">
			<stop  offset="0" style="stop-color:#FE315D"/>
			<stop  offset="4.023279e-02" style="stop-color:#F63462"/>
			<stop  offset="0.1037" style="stop-color:#DF3A71"/>
			<stop  offset="0.1667" style="stop-color:#C24383"/>
			<stop  offset="0.2912" style="stop-color:#AD4A91"/>
			<stop  offset="0.5498" style="stop-color:#755BB4"/>
			<stop  offset="0.9175" style="stop-color:#1D76ED"/>
			<stop  offset="1" style="stop-color:#087CFA"/>
		</linearGradient>
		<polygon class="st3" points="96.2,166 16,195.1 28.8,150 45.7,94.7 0,79.3 28.8,0.2 91.6,7.9 153.3,78.4 		"/>
	</g>
	<g>
		<rect x="39.1" y="38.7" width="123.3" height="123.3"/>
		<rect x="50.5" y="138.9" class="st4" width="46.2" height="7.7"/>
		<polygon class="st4" points="83.9,64.1 83.9,54.7 58.2,54.7 58.2,64.1 65.7,64.1 65.7,96.4 58.2,96.4 58.2,105.8 83.9,105.8 
			83.9,96.4 76.8,96.4 76.8,64.1 		"/>
		<path class="st4" d="M108.5,106.7c-4,0-7.4-0.9-10-2.3c-2.6-1.4-4.9-3.4-6.6-5.4l7.1-8c1.4,1.7,2.9,2.9,4.3,3.7
			c1.4,0.9,3.1,1.4,4.9,1.4c2,0,3.7-0.6,5.1-2c1.1-1.4,1.7-3.4,1.7-6.6V54.7h11.4v33.4c0,3.1-0.3,5.7-1.1,8c-0.9,2.3-2,4-3.7,5.7
			c-1.4,1.4-3.4,2.9-5.7,3.4C113.6,106.1,111.3,106.7,108.5,106.7"/>
	</g>
</g>
</svg>
