<?xml version="1.0" encoding="utf-8"?>
<!-- Generator: Adobe Illustrator 21.0.0, SVG Export Plug-In . SVG Version: 6.00 Build 0)  -->
<svg version="1.1" id="Capa_1" xmlns="http://www.w3.org/2000/svg" xmlns:xlink="http://www.w3.org/1999/xlink" x="0px" y="0px"
	 viewBox="0 0 100 100" style="enable-background:new 0 0 100 100;" xml:space="preserve">
<style type="text/css">
	.st0{fill:#006289;}
	.st1{fill:#D09300;}
	.st2{fill-rule:evenodd;clip-rule:evenodd;fill:#006289;}
	.st3{fill-rule:evenodd;clip-rule:evenodd;fill:#D09300;}
</style>
<path class="st0" d="M0,66.3h3.3V53.4l5.1,11.3c0.6,1.4,1.4,1.8,3,1.8s2.4-0.5,3-1.8l5.1-11.3v12.9h3.3V53.4c0-1.3-0.5-1.9-1.5-2.2
	c-2.5-0.8-4.2-0.1-4.9,1.6l-5,11.1L6.5,52.8c-0.7-1.7-2.4-2.4-4.9-1.6c-1,0.3-1.5,0.9-1.5,2.2V66.3L0,66.3z"/>
<path class="st0" d="M25.4,55.8h3.3v7.1c0,0.4,0.1,1.3,1.9,1.3c0.9,0,7.1,0,7.1,0v-8.5H41c0,0,0,11.6,0,11.6c0,2.9-3.5,3.5-5.2,3.5
	H25.5v-2.2c0,0,10.3,0,10.4,0c2.1-0.2,1.9-1.3,1.9-1.6v-0.9h-7c-3.2,0-5.3-1.4-5.3-3.1C25.4,63,25.5,55.9,25.4,55.8L25.4,55.8z"/>
<path class="st1" d="M43.6,66.3H53c1.1,0,2.2-0.2,3-0.6c1.4-0.7,2.1-1.5,2.1-2.7v-2.4c0-0.9-0.8-1.8-2.3-2.4
	C55,57.9,54,57.7,53,57.7h-4c-1.3,0-2-0.4-2.1-1.3c0-0.1,0-0.2,0-0.3v-1.5c0-0.1,0-0.2,0-0.3c0.2-0.7,0.5-0.9,1.7-1
	c0.1,0,0.2,0,0.3,0h9.4v-2.2H49c-1.3,0-2,0.1-2.6,0.3c-2,0.6-2.8,1.6-2.8,3.3v1.9c0,1.5,1.7,2.7,4.5,3c0.3,0,0.6,0,0.9,0h3.4
	c0.1,0,0.3,0,0.3,0c1,0.1,1.5,0.3,1.8,0.7c0.2,0.2,0.3,0.4,0.3,0.6v1.9c0,0.2-0.2,0.5-0.5,0.8c-0.3,0.3-0.8,0.4-1.4,0.5
	c-0.1,0-0.2,0-0.3,0h-9V66.3L43.6,66.3z"/>
<path class="st1" d="M78.5,62.5c0,2.2,1.7,3.5,5,3.8c0.3,0,0.6,0,0.9,0h8.5v-2.2h-8.6c-1.9,0-2.6-0.5-2.6-1.6V51.2h-3.3V62.5
	L78.5,62.5z"/>
<path class="st1" d="M60.2,62.6v-7.8c0-2,1.4-3.2,4.1-3.6c0.3,0,0.6-0.1,0.9-0.1h6.2c0.3,0,0.6,0,0.9,0.1c2.7,0.4,4.1,1.6,4.1,3.6
	v7.8c0,1.6-0.6,2.5-1.9,3l3.2,2.9H74l-2.6-2.4l-2.6,0.2h-3.5c-0.6,0-1.2-0.1-1.9-0.3C61.2,65.5,60.2,64.5,60.2,62.6L60.2,62.6z
	 M63.7,62.5c0,0.1,0,0.2,0.1,0.3c0.2,0.9,1,1.4,2.3,1.4h3l-2.7-2.5h3.8l2.4,2.2c0.4-0.2,0.7-0.6,0.8-1.1c0-0.1,0-0.2,0-0.3V55
	c0-0.1,0-0.2,0-0.3c-0.2-0.8-1-1.3-2.3-1.3h-5c-1.5,0-2.4,0.6-2.4,1.6V62.5L63.7,62.5z"/>
<path class="st0" d="M95.9,47.6c-2-0.1-3.6,0.1-4.9,0.7c-0.4,0.2-1,0.2-1,0.6c0.2,0.2,0.2,0.5,0.4,0.8c0.3,0.5,0.8,1.2,1.3,1.5
	c0.5,0.4,1,0.8,1.6,1.1c1,0.6,2.1,0.9,3,1.5c0.6,0.4,1.1,0.8,1.7,1.2c0.3,0.2,0.5,0.5,0.8,0.6c0,0,0,0,0-0.1
	c-0.2-0.2-0.2-0.6-0.4-0.8c-0.2-0.2-0.5-0.5-0.7-0.7c-0.7-1-1.7-1.8-2.6-2.5c-0.8-0.6-2.5-1.3-2.9-2.2c0,0,0,0-0.1-0.1
	c0.6-0.1,1.2-0.3,1.7-0.4c0.9-0.2,1.6-0.2,2.5-0.4c0.4-0.1,0.8-0.2,1.2-0.3c0-0.1,0-0.2,0-0.2c-0.4-0.5-0.8-1.1-1.3-1.5
	c-1.3-1.1-2.7-2.2-4.1-3.1c-0.8-0.5-1.8-0.8-2.6-1.3c-0.3-0.1-0.8-0.2-1-0.5c-0.4-0.6-0.7-1.3-1-1.9c-0.7-1.4-1.4-2.9-2.1-4.4
	c-0.4-1-0.7-2-1.3-2.9c-2.6-4.3-5.4-6.9-9.7-9.4c-0.9-0.5-2-0.8-3.2-1c-0.6,0-1.3-0.1-1.9-0.1c-0.4-0.2-0.8-0.6-1.1-0.9
	c-1.4-0.9-5.1-2.9-6.2-0.3c-0.7,1.6,1,3.2,1.6,4.1c0.4,0.6,1,1.2,1.3,1.9c0.2,0.4,0.2,0.9,0.4,1.3c0.4,1.1,0.8,2.3,1.3,3.4
	c0.3,0.5,0.6,1.1,0.9,1.5c0.2,0.3,0.6,0.4,0.6,0.9c-0.4,0.5-0.4,1.3-0.6,1.9c-0.9,2.8-0.6,6.3,0.7,8.4c0.4,0.6,1.3,2,2.6,1.5
	c1.1-0.5,0.9-1.9,1.2-3.1c0.1-0.3,0-0.5,0.2-0.7c0,0,0,0,0,0.1c0.3,0.7,0.7,1.4,1,2.1c0.8,1.2,2.1,2.5,3.3,3.4
	c0.6,0.4,1.1,1.2,1.8,1.5c0,0,0,0,0-0.1c0,0,0,0-0.1,0c-0.1-0.2-0.4-0.3-0.6-0.5c-0.4-0.4-0.9-1-1.3-1.5c-1-1.4-2-3-2.8-4.6
	c-0.4-0.8-0.7-1.6-1.1-2.4c-0.1-0.3-0.1-0.8-0.4-0.9c-0.4,0.6-0.9,1-1.2,1.7c-0.5,1.1-0.5,2.4-0.7,3.8c-0.1,0-0.1,0-0.1,0.1
	c-0.8-0.2-1.1-1-1.4-1.7c-0.7-1.8-0.9-4.6-0.2-6.7c0.2-0.5,0.9-2.2,0.6-2.7c-0.1-0.5-0.6-0.8-0.9-1.1c-0.3-0.5-0.7-1.1-0.9-1.6
	c-0.6-1.4-0.9-2.9-1.5-4.4c-0.3-0.7-0.8-1.4-1.3-1.9c-0.5-0.7-1-1.1-1.4-1.9c-0.1-0.3-0.3-0.7-0.1-1c0.1-0.2,0.1-0.3,0.3-0.3
	c0.3-0.3,1.3,0.1,1.6,0.2c0.9,0.4,1.7,0.7,2.5,1.3c0.4,0.2,0.8,0.7,1.2,0.9c0.2,0,0.3,0,0.5,0c0.8,0.2,1.7,0.1,2.5,0.3
	c1.3,0.4,2.5,1,3.6,1.7c3.3,2.1,6,5.1,7.8,8.6c0.3,0.6,0.4,1.1,0.7,1.7c0.5,1.2,1.2,2.5,1.7,3.7c0.5,1.2,1,2.4,1.8,3.4
	c0.4,0.5,1.9,0.8,2.6,1.1c0.5,0.2,1.3,0.4,1.7,0.7c0.9,0.5,1.7,1.1,2.5,1.7C94.6,46.4,95.9,47.1,95.9,47.6L95.9,47.6z"/>
<path class="st2" d="M70.4,25.8c-0.4,0-0.7,0-1,0.1c0,0,0,0,0,0.1c0,0,0,0,0.1,0c0.2,0.4,0.6,0.7,0.8,1c0.2,0.4,0.4,0.8,0.6,1.2
	c0,0,0,0,0.1-0.1c0.4-0.2,0.5-0.6,0.5-1.3c-0.1-0.1-0.2-0.3-0.3-0.5C70.9,26.1,70.6,26,70.4,25.8L70.4,25.8z"/>
<path class="st3" d="M94.6,64.1c0,1.4,1.1,2.4,2.4,2.4c1.3,0,2.4-1,2.4-2.4c0-1.4-1.1-2.4-2.4-2.4C95.7,61.7,94.6,62.6,94.6,64.1
	L94.6,64.1z M98.9,64.1c0,1.1-0.8,1.9-1.9,1.9c-1,0-1.9-0.8-1.9-1.9c0-1.1,0.8-1.9,1.9-1.9C98.1,62.2,98.9,63,98.9,64.1L98.9,64.1z
	 M97.7,65.5h0.5l-0.8-1.2c0.4,0,0.7-0.3,0.7-0.8c0-0.6-0.4-0.8-1-0.8h-1.1v2.8h0.5v-1.2h0.4L97.7,65.5L97.7,65.5z M96.5,63.9v-0.8
	h0.5c0.3,0,0.6,0.1,0.6,0.4c0,0.4-0.3,0.4-0.7,0.4H96.5L96.5,63.9z"/>
</svg>
