<?xml version="1.0" encoding="utf-8"?>
<!-- Generator: Adobe Illustrator 21.0.0, SVG Export Plug-In . SVG Version: 6.00 Build 0)  -->
<svg version="1.1" id="Capa_1" xmlns="http://www.w3.org/2000/svg" xmlns:xlink="http://www.w3.org/1999/xlink" x="0px" y="0px"
	 viewBox="0 0 200 200" style="enable-background:new 0 0 200 200;" xml:space="preserve">
<style type="text/css">
	.st0{fill:#001E36;}
	.st1{fill:#31A8FF;}
</style>
<g id="Layer_2_1_">
	<g id="Surfaces">
		<g id="Photo_Surface">
			<g id="Outline_no_shadow">
				<path class="st0" d="M35.4,1.1h129.2c19.6,0,35.4,15.8,35.4,35.4v124.2c0,19.6-15.8,35.4-35.4,35.4H35.4
					C15.8,196.1,0,180.3,0,160.7V36.5C0,16.9,15.8,1.1,35.4,1.1z"/>
			</g>
		</g>
	</g>
	<g id="Outlined_Mnemonics_Logos">
		<g id="Ps">
			<path class="st1" d="M45,137.9V52.1c0-0.6,0.2-0.9,0.8-0.9c1.4,0,2.8,0,4.7-0.1c2-0.1,4.1-0.1,6.3-0.2c2.2-0.1,4.7-0.1,7.2-0.2
				c2.6-0.1,5.1-0.1,7.6-0.1c6.8,0,12.5,0.8,17.2,2.6c4.2,1.4,8,3.8,11.2,6.8c2.7,2.7,4.8,5.9,6.1,9.5c1.2,3.5,1.9,7.1,1.9,10.8
				c0,7.2-1.7,13.1-5,17.7s-8,8.2-13.4,10.2c-5.7,2.1-11.9,2.8-18.8,2.8c-2,0-3.3,0-4.2-0.1c-0.8-0.1-2-0.1-3.6-0.1v26.7
				c0.1,0.6-0.3,1.1-0.9,1.2c-0.1,0-0.2,0-0.3,0H46C45.3,138.9,45,138.6,45,137.9z M63.2,67.3v28c1.2,0.1,2.2,0.2,3.3,0.2h4.4
				c3.2,0,6.5-0.5,9.6-1.5c2.7-0.8,5-2.3,6.8-4.4c1.8-2.1,2.6-4.9,2.6-8.6c0.1-2.6-0.6-5.2-1.9-7.4c-1.4-2.2-3.4-3.8-5.8-4.7
				c-3.1-1.2-6.4-1.8-9.8-1.7c-2.2,0-4.1,0-5.7,0.1C64.9,67.1,63.8,67.2,63.2,67.3L63.2,67.3z"/>
			<path class="st1" d="M160,90.2c-2.5-1.3-5.2-2.2-8-2.8c-3.1-0.7-6.2-1.1-9.3-1.1c-1.7-0.1-3.4,0.2-5,0.6c-1.1,0.2-2,0.8-2.6,1.7
				c-0.4,0.7-0.7,1.5-0.7,2.2s0.3,1.5,0.8,2.2c0.8,0.9,1.8,1.7,2.8,2.2c1.9,1,3.9,1.9,5.9,2.8c4.5,1.5,8.8,3.6,12.8,6.1
				c2.8,1.8,5,4.1,6.6,6.9c1.3,2.7,2,5.6,1.9,8.6c0.1,3.9-1.1,7.8-3.2,11.1c-2.3,3.3-5.6,5.9-9.3,7.4c-4.1,1.8-9.1,2.7-15.1,2.7
				c-3.8,0-7.6-0.3-11.3-1.1c-2.9-0.5-5.8-1.4-8.5-2.7c-0.6-0.3-1-0.9-0.9-1.6v-14.5c0-0.2,0.1-0.6,0.3-0.7c0.3-0.2,0.5-0.1,0.8,0.1
				c3.2,1.9,6.7,3.2,10.3,4.1c3.2,0.8,6.5,1.2,9.8,1.2c3.2,0,5.4-0.4,6.9-1.2c1.3-0.6,2.2-2,2.2-3.5c0-1.2-0.7-2.2-2-3.3
				s-4.1-2.3-8.2-3.9c-4.2-1.5-8.2-3.5-11.8-6c-2.6-1.8-4.8-4.2-6.3-7.1c-1.3-2.7-2-5.6-1.9-8.5c0-3.6,1-7,2.8-10.1
				c2.1-3.3,5.2-6,8.8-7.7c3.9-2,8.8-2.9,14.8-2.9c3.4,0,6.9,0.3,10.3,0.8c2.5,0.3,4.9,1,7.2,1.9c0.3,0.1,0.7,0.4,0.8,0.8
				c0.1,0.3,0.2,0.7,0.2,1v13.6c0,0.3-0.2,0.7-0.4,0.8C160.8,90.4,160.3,90.4,160,90.2z"/>
		</g>
	</g>
</g>
</svg>
