<?xml version="1.0" encoding="utf-8"?>
<!-- Generator: Adobe Illustrator 21.0.0, SVG Export Plug-In . SVG Version: 6.00 Build 0)  -->
<svg version="1.1" id="Capa_1" xmlns="http://www.w3.org/2000/svg" xmlns:xlink="http://www.w3.org/1999/xlink" x="0px" y="0px"
	 viewBox="0 0 200 200" style="enable-background:new 0 0 200 200;" xml:space="preserve">
<style type="text/css">
	.st0{fill:#FFFFFF;filter:url(#Adobe_OpacityMaskFilter);}
	.st1{mask:url(#mask0_1_);}
	.st2{fill:#0065A9;}
	.st3{fill:#007ACC;}
	.st4{fill:#1F9CF0;}
	.st5{opacity:0.25;}
	.st6{fill:url(#SVGID_1_);}
</style>
<defs>
	<filter id="Adobe_OpacityMaskFilter" filterUnits="userSpaceOnUse" x="0" y="0.1" width="199.7" height="198.5">
		<feColorMatrix  type="matrix" values="1 0 0 0 0  0 1 0 0 0  0 0 1 0 0  0 0 0 1 0"/>
	</filter>
</defs>
<mask maskUnits="userSpaceOnUse" x="0" y="0.1" width="199.7" height="198.5" id="mask0_1_">
	<path class="st0" d="M141.6,197.8c3.1,1.2,6.7,1.1,9.9-0.4l41.1-19.8c4.3-2.1,7.1-6.4,7.1-11.2v-134c0-4.8-2.7-9.2-7.1-11.2
		L151.5,1.3c-4.2-2-9-1.5-12.7,1.1c-0.5,0.4-1,0.8-1.5,1.3L58.7,75.5l-34.3-26c-3.2-2.4-7.6-2.2-10.6,0.5l-11,10
		c-3.6,3.3-3.6,9,0,12.3l29.7,27.1L2.8,126.5c-3.6,3.3-3.6,9,0,12.3l11,10c3,2.7,7.4,2.9,10.6,0.5l34.3-26l78.6,71.7
		C138.6,196.2,140,197.2,141.6,197.8z M149.8,54.1L90.1,99.4l59.7,45.3V54.1z"/>
</mask>
<g class="st1">
	<path class="st2" d="M192.6,21.1L151.5,1.4C146.7-0.9,141,0,137.3,3.8L2.7,126.5c-3.6,3.3-3.6,9,0,12.3l11,10
		c3,2.7,7.4,2.9,10.6,0.5l162.1-123c5.4-4.1,13.2-0.2,13.2,6.6v-0.5C199.7,27.6,196.9,23.2,192.6,21.1z"/>
	<g>
		<path class="st3" d="M192.6,177.6l-41.1,19.8c-4.8,2.3-10.4,1.3-14.2-2.4L2.7,72.3c-3.6-3.3-3.6-9,0-12.3l11-10
			c3-2.7,7.4-2.9,10.6-0.5l162.1,123c5.4,4.1,13.2,0.2,13.2-6.6v0.5C199.7,171.2,196.9,175.5,192.6,177.6z"/>
	</g>
	<g>
		<path class="st4" d="M151.5,197.4c-4.8,2.3-10.4,1.3-14.2-2.4c4.6,4.6,12.5,1.3,12.5-5.2V8.9c0-6.5-7.9-9.8-12.5-5.2
			c3.7-3.7,9.4-4.7,14.2-2.4l41.1,19.8c4.3,2.1,7.1,6.4,7.1,11.2v134c0,4.8-2.7,9.2-7.1,11.2L151.5,197.4z"/>
	</g>
	<g class="st5">
		
			<linearGradient id="SVGID_1_" gradientUnits="userSpaceOnUse" x1="99.7681" y1="201.8798" x2="99.7681" y2="3.3722" gradientTransform="matrix(1 0 0 -1 0 202)">
			<stop  offset="0" style="stop-color:#FFFFFF"/>
			<stop  offset="1" style="stop-color:#FFFFFF;stop-opacity:0"/>
		</linearGradient>
		<path class="st6" d="M141.5,197.8c3.1,1.2,6.7,1.1,9.9-0.4l41.1-19.8c4.3-2.1,7.1-6.4,7.1-11.2v-134c0-4.8-2.7-9.2-7.1-11.2
			L151.4,1.3c-4.2-2-9-1.5-12.7,1.1c-0.5,0.4-1,0.8-1.5,1.3L58.6,75.5l-34.3-26c-3.2-2.4-7.6-2.2-10.6,0.5l-11,10
			c-3.6,3.3-3.6,9,0,12.3l29.7,27.1L2.7,126.5c-3.6,3.3-3.6,9,0,12.3l11,10c3,2.7,7.4,2.9,10.6,0.5l34.3-26l78.6,71.7
			C138.5,196.2,139.9,197.2,141.5,197.8z M149.7,54.1L90,99.4l59.7,45.3V54.1z"/>
	</g>
</g>
</svg>
