<?xml version="1.0" encoding="utf-8"?>
<!-- Generator: Adobe Illustrator 21.0.0, SVG Export Plug-In . SVG Version: 6.00 Build 0)  -->
<svg version="1.1" id="Capa_1" xmlns="http://www.w3.org/2000/svg" xmlns:xlink="http://www.w3.org/1999/xlink" x="0px" y="0px"
	 viewBox="0 0 200 200" style="enable-background:new 0 0 200 200;" xml:space="preserve">
<style type="text/css">
	.st0{fill:#330000;}
	.st1{fill:#FF9A00;}
</style>
<g>
	<path class="st0" d="M35.3,2.1H164c19.5,0,35.3,15.8,35.3,35.3v123.8c0,19.5-15.8,35.3-35.3,35.3H35.3C15.8,196.4,0,180.7,0,161.1
		V37.4C0,17.8,15.8,2.1,35.3,2.1z"/>
	<path class="st1" d="M96.3,118.4H65.4l-6.3,19.5c-0.2,0.7-0.8,1.2-1.6,1.2H41.9c-0.9,0-1.2-0.5-0.9-1.5l26.7-77
		c0.2-0.8,0.5-1.7,0.8-2.7c0.3-1.7,0.5-3.6,0.5-5.4c-0.1-0.4,0.2-0.8,0.7-0.9h21.5c0.7,0,1,0.2,1.1,0.7l30.3,85.6
		c0.2,0.9,0,1.3-0.8,1.3h-17.4c-0.6,0.1-1.2-0.3-1.3-0.9L96.3,118.4z M70.3,101.5h21.1c-0.5-1.7-1.2-3.8-1.9-6
		c-0.7-2.2-1.5-4.7-2.2-7.1c-0.8-2.6-1.6-5.1-2.4-7.6c-0.8-2.6-1.6-5-2.2-7.4c-0.7-2.3-1.2-4.5-1.8-6.5h-0.2
		c-0.7,3.6-1.7,7.1-2.8,10.7c-1.2,4-2.5,8.1-3.8,12.3C72.7,94.1,71.5,98,70.3,101.5z M141.2,66c-2.7,0.1-5.4-1-7.4-2.9
		c-1.9-2.1-2.9-4.8-2.8-7.6c-0.1-2.8,1-5.5,3-7.4c2-1.9,4.7-2.9,7.4-2.9c3.2,0,5.7,1,7.6,2.9c1.8,2,2.8,4.7,2.7,7.4
		c0.1,2.8-0.9,5.6-2.9,7.6C146.8,65.1,144,66.2,141.2,66L141.2,66z M131.9,138.1v-64c0-0.8,0.3-1.2,1.1-1.2h16.4
		c0.7,0,1.1,0.4,1.1,1.2v64c0,0.9-0.3,1.3-1.1,1.3h-16.3C132.3,139.5,131.9,139,131.9,138.1z"/>
</g>
</svg>
