<?xml version="1.0" encoding="utf-8"?>
<!-- Generator: Adobe Illustrator 21.0.0, SVG Export Plug-In . SVG Version: 6.00 Build 0)  -->
<svg version="1.1" id="Capa_1" xmlns="http://www.w3.org/2000/svg" xmlns:xlink="http://www.w3.org/1999/xlink" x="0px" y="0px"
	 viewBox="0 0 200 200" style="enable-background:new 0 0 200 200;" xml:space="preserve">
<style type="text/css">
	.st0{fill:#DD0031;}
	.st1{fill:#C3002F;}
	.st2{fill:#FFFFFF;}
</style>
<g>
	<polygon class="st0" points="100,-0.4 100,-0.4 100,-0.4 6.9,32.8 21.1,155.9 100,199.6 100,199.6 100,199.6 178.9,155.9 
		193.1,32.8 	"/>
	<polygon class="st1" points="100,-0.4 100,21.8 100,21.7 100,123 100,123 100,199.6 100,199.6 178.9,155.9 193.1,32.8 	"/>
	<path class="st2" d="M100,21.7L41.8,152.2l0,0h21.7l0,0L75.2,123h49.4l11.7,29.2l0,0H158l0,0L100,21.7L100,21.7L100,21.7L100,21.7
		L100,21.7z M117,105H83l17-40.9L117,105z"/>
</g>
</svg>
