<?xml version="1.0" encoding="utf-8"?>
<!-- Generator: Adobe Illustrator 21.0.0, SVG Export Plug-In . SVG Version: 6.00 Build 0)  -->
<svg version="1.1" id="Capa_1" xmlns="http://www.w3.org/2000/svg" xmlns:xlink="http://www.w3.org/1999/xlink" x="0px" y="0px"
	 viewBox="0 0 200 200" style="enable-background:new 0 0 200 200;" xml:space="preserve">
<style type="text/css">
	.st0{fill:#0C73B8;}
	.st1{fill:#30A9DC;}
	.st2{fill:#ECEDEE;}
	.st3{fill:#FFFFFF;}
</style>
<g>
	<path class="st0" d="M27.3,179.7L11.3,0h176.2l-16,179.7L99.2,200"/>
	<path class="st1" d="M99.6,184.4l58.2-16l13.7-153.9H99.6"/>
	<path class="st2" d="M99.6,81.2H48l2,22.3h49.6V81.2z M99.6,36.7H44.1l2,21.9h53.5V36.7z M99.6,138.7l-48.4-12.9l2.7,23.4
		l45.7,12.5V138.7z"/>
	<path class="st3" d="M99.6,103.5h27l-2.7,28.5l-24.2,6.6v23l44.9-12.5l10.2-112.5H99.6v21.9h31.2l-2.3,22.7H99.6V103.5z"/>
</g>
</svg>
