<?xml version="1.0" encoding="utf-8"?>
<!-- Generator: Adobe Illustrator 21.0.0, SVG Export Plug-In . SVG Version: 6.00 Build 0)  -->
<svg version="1.1" id="Capa_1" xmlns="http://www.w3.org/2000/svg" xmlns:xlink="http://www.w3.org/1999/xlink" x="0px" y="0px"
	 viewBox="0 0 200 200" style="enable-background:new 0 0 200 200;" xml:space="preserve">
<style type="text/css">
	.st0{fill:#E76F00;}
	.st1{fill:#5382A1;}
</style>
<g>
	<path class="st0" d="M148.9,157.7h-0.8v-0.4h2v0.4h-0.7v2.1h-0.5V157.7z M153,157.8L153,157.8l-0.8,2h-0.3l-0.7-2h0v2h-0.5v-2.5
		h0.7l0.7,1.8l0.7-1.8h0.7v2.5H153L153,157.8z"/>
	<path class="st1" d="M81.5,106.1c0,0-5.2,3,3.7,4.1c10.9,1.2,16.4,1.1,28.4-1.2c0,0,3.2,2,7.6,3.7C94.3,124.1,60.4,112,81.5,106.1
		 M78.2,91c0,0-5.9,4.4,3.1,5.3c11.6,1.2,20.8,1.3,36.7-1.8c0,0,2.2,2.2,5.6,3.4C91.1,107.5,54.9,98.7,78.2,91"/>
	<path class="st0" d="M105.8,65.5c6.6,7.6-1.7,14.5-1.7,14.5s16.8-8.7,9.1-19.5C106,50.4,100.5,45.3,130.4,28
		C130.4,28,83.4,39.7,105.8,65.5"/>
	<path class="st1" d="M141.4,117.2c0,0,3.9,3.2-4.3,5.7c-15.5,4.7-64.5,6.1-78.2,0.2c-4.9-2.1,4.3-5.1,7.2-5.7
		c3-0.7,4.7-0.5,4.7-0.5c-5.4-3.8-35.2,7.5-15.1,10.8C110.5,136.5,155.6,123.6,141.4,117.2 M84,75.5c0,0-24.9,5.9-8.8,8.1
		c6.8,0.9,20.4,0.7,33-0.4c10.3-0.9,20.7-2.7,20.7-2.7s-3.6,1.6-6.3,3.4c-25.3,6.7-74.3,3.6-60.2-3.3C74.3,74.8,84,75.5,84,75.5
		 M128.7,100.5c25.7-13.4,13.8-26.2,5.5-24.5c-2,0.4-2.9,0.8-2.9,0.8s0.8-1.2,2.2-1.7c16.4-5.8,29.1,17-5.3,26.1
		C128.2,101.1,128.6,100.8,128.7,100.5"/>
	<path class="st0" d="M113.2-0.1c0,0,14.3,14.3-13.5,36.2c-22.3,17.6-5.1,27.6,0,39.1c-13-11.7-22.5-22.1-16.1-31.7
		C92.9,29.4,118.9,22.6,113.2-0.1"/>
	<path class="st1" d="M86.5,136.7c24.7,1.6,62.7-0.9,63.6-12.6c0,0-1.7,4.4-20.4,8c-21.1,4-47.1,3.5-62.5,1
		C67.1,133.1,70.3,135.7,86.5,136.7"/>
	<path class="st0" d="M82.5,181.4c-2.3,2-4.8,3.2-7,3.2c-3.2,0-4.9-1.9-4.9-4.9c0-3.3,1.8-5.7,9.2-5.7h2.7L82.5,181.4 M88.9,188.7
		v-22.5c0-5.7-3.3-9.5-11.2-9.5c-4.6,0-8.6,1.1-11.9,2.6l0.9,4c2.6-0.9,5.9-1.8,9.2-1.8c4.5,0,6.5,1.8,6.5,5.6v2.8h-2.3
		c-11,0-16,4.3-16,10.7c0,5.6,3.3,8.7,9.5,8.7c4,0,6.9-1.6,9.7-4l0.5,3.4L88.9,188.7L88.9,188.7z M110.4,188.7h-8l-9.7-31.4h7
		l6,19.3l1.3,5.8c3-8.4,5.2-16.9,6.2-25.1h6.8C118.2,167.6,115,179,110.4,188.7 M141.1,181.4c-2.3,2-4.8,3.2-7,3.2
		c-3.1,0-4.9-1.9-4.9-4.9c0-3.3,1.8-5.7,9.2-5.7h2.7V181.4 M147.6,188.7v-22.5c0-5.7-3.3-9.5-11.2-9.5c-4.6,0-8.6,1.1-11.9,2.6
		l0.9,4c2.6-0.9,5.9-1.8,9.2-1.8c4.5,0,6.5,1.8,6.5,5.6v2.8h-2.3c-11,0-16,4.3-16,10.7c0,5.6,3.3,8.7,9.5,8.7c4,0,6.9-1.6,9.7-4
		l0.5,3.4L147.6,188.7L147.6,188.7z M57.1,194c-1.8,2.7-4.8,4.8-8,6l-3.2-3.7c2.5-1.3,4.6-3.3,5.6-5.2c0.9-1.7,1.2-3.9,1.2-9.1
		v-35.9h6.8v35.4C59.5,188.4,58.9,191.3,57.1,194"/>
</g>
</svg>
