<?xml version="1.0" encoding="utf-8"?>
<!-- Generator: Adobe Illustrator 21.0.0, SVG Export Plug-In . SVG Version: 6.00 Build 0)  -->
<svg version="1.1" id="Capa_1" xmlns="http://www.w3.org/2000/svg" xmlns:xlink="http://www.w3.org/1999/xlink" x="0px" y="0px"
	 viewBox="0 0 200 200" style="enable-background:new 0 0 200 200;" xml:space="preserve">
<style type="text/css">
	.st0{fill:#F7DF1E;}
</style>
<g>
	<rect class="st0" width="200" height="200"/>
	<path d="M134.3,156.3c4,6.6,9.3,11.4,18.5,11.4c7.8,0,12.8-3.9,12.8-9.3c0-6.4-5.1-8.7-13.7-12.5l-4.7-2
		c-13.6-5.8-22.6-13-22.6-28.3c0-14.1,10.7-24.8,27.5-24.8c11.9,0,20.5,4.2,26.7,15l-14.6,9.4c-3.2-5.8-6.7-8.1-12.1-8.1
		c-5.5,0-9,3.5-9,8.1c0,5.6,3.5,7.9,11.6,11.4l4.7,2c16,6.8,25,13.8,25,29.5c0,16.9-13.3,26.2-31.1,26.2c-17.5,0-28.7-8.3-34.2-19.2
		L134.3,156.3z M68,157.9c3,5.2,5.6,9.7,12.1,9.7c6.2,0,10.1-2.4,10.1-11.8V91.8h18.8V156c0,19.5-11.4,28.3-28.1,28.3
		c-15,0-23.8-7.8-28.2-17.2L68,157.9z"/>
</g>
</svg>
