<?xml version="1.0" encoding="utf-8"?>
<!-- Generator: Adobe Illustrator 21.0.0, SVG Export Plug-In . SVG Version: 6.00 Build 0)  -->
<svg version="1.1" id="Capa_1" xmlns="http://www.w3.org/2000/svg" xmlns:xlink="http://www.w3.org/1999/xlink" x="0px" y="0px"
	 viewBox="0 0 200 200" style="enable-background:new 0 0 200 200;" xml:space="preserve">
<style type="text/css">
	.st0{fill:#001E36;}
	.st1{fill:#31A8FF;}
</style>
<g id="Layer_2_1_">
	<path class="st0" d="M35.4,1.7h129.2c19.6,0,35.4,15.8,35.4,35.4v124.2c0,19.6-15.8,35.4-35.4,35.4H35.4
		C15.8,196.8,0,180.9,0,161.3V37.2C0,17.6,15.8,1.7,35.4,1.7z"/>
	<g id="Lr">
		<path class="st1" d="M105,139.6H52.2c-0.9,0-1.3-0.5-1.3-1.5V52.9c-0.1-0.5,0.3-1.1,0.9-1.2c0.1,0,0.2,0,0.3,0h16.3
			c0.4-0.1,0.9,0.2,0.9,0.7c0,0.1,0,0.2,0,0.2v70h38.5c0.9,0,1.1,0.4,0.9,1.2l-2.4,14.5c0,0.4-0.2,0.8-0.5,1
			C105.6,139.5,105.3,139.6,105,139.6z"/>
		<path class="st1" d="M118.3,72.9h14.6c0.9,0,1.5,0.5,1.7,1.3c0.3,0.5,0.5,1.2,0.7,2c0.2,0.9,0.3,1.7,0.4,2.6c0.1,0.9,0.2,2,0.2,3
			c2.5-2.9,5.5-5.3,8.9-7.2c3.8-2.1,8.1-3.1,12.4-3c0.5-0.1,1.1,0.3,1.2,0.9c0,0.1,0,0.2,0,0.3v16.3c0,0.7-0.4,0.9-1.3,0.9
			c-5.4-0.3-10.8,0.7-15.8,2.8c-1.6,0.8-3.3,1.7-4.5,3.1v42.5c0,0.9-0.3,1.2-1.1,1.2h-16.2c-0.7,0.1-1.2-0.3-1.3-1
			c0-0.1,0-0.2,0-0.3V92.1c0-2,0-4.1-0.1-6.2c-0.1-2.2-0.1-4.4-0.2-6.5c-0.1-1.9-0.2-3.7-0.5-5.5c-0.1-0.4,0.2-0.9,0.5-0.9
			C118.1,72.8,118.2,72.8,118.3,72.9L118.3,72.9z"/>
	</g>
</g>
</svg>
