<?xml version="1.0" encoding="utf-8"?>
<!-- Generator: Adobe Illustrator 21.0.0, SVG Export Plug-In . SVG Version: 6.00 Build 0)  -->
<svg version="1.1" id="Capa_1" xmlns="http://www.w3.org/2000/svg" xmlns:xlink="http://www.w3.org/1999/xlink" x="0px" y="0px"
	 viewBox="0 0 200 200" style="enable-background:new 0 0 200 200;" xml:space="preserve">
<style type="text/css">
	.st0{fill:#FF6C37;}
	.st1{fill:#FFFFFF;}
</style>
<g>
	<path class="st0" d="M199,112.6c7-54.8-31.7-104.9-86.4-111.9S7.6,32.4,0.6,87.1S32.3,192,87,199.1
		C141.8,206.1,191.9,167.4,199,112.6z"/>
	<g transform="translate(50.181225, 45.198924)">
		<path class="st1" d="M85.7,18.9L43.5,61.1L31.6,49.2C73.1,7.7,77.2,11.3,85.7,18.9L85.7,18.9z"/>
		<path class="st0" d="M43.5,62.1c-0.3,0-0.5-0.1-0.7-0.3l-12-11.9c-0.4-0.4-0.4-1,0-1.4C73,6.3,77.4,10.3,86.3,18.3
			c0.2,0.2,0.3,0.4,0.3,0.7s-0.1,0.5-0.3,0.7L44.1,61.8C44,62,43.7,62.1,43.5,62.1z M33,49.2l10.5,10.5L84.2,19
			C76.8,12.4,71.8,10.4,33,49.2L33,49.2z"/>
		<path class="st1" d="M55.6,73.2L44.1,61.7l42.2-42.2C97.6,30.9,80.7,49.4,55.6,73.2z"/>
		<path class="st0" d="M55.6,74.2c-0.3,0-0.5-0.1-0.7-0.3L43.4,62.4c-0.2-0.2-0.2-0.4-0.2-0.7c0-0.3,0.1-0.5,0.3-0.7l42.2-42.2
			c0.4-0.4,1-0.4,1.4,0c2.6,2.4,4,5.8,3.9,9.3c-0.2,11.1-12.8,25.2-34.6,45.8C56.1,74.1,55.8,74.2,55.6,74.2L55.6,74.2z M45.5,61.7
			c6.4,6.5,9.1,9.1,10.1,10.1c16.8-16,33.1-32.4,33.2-43.7c0.1-2.6-0.9-5.2-2.6-7.2L45.5,61.7z"/>
		<path class="st1" d="M31.8,49.5l8.5,8.5c0.2,0.2,0.2,0.4,0,0.6c-0.1,0.1-0.1,0.1-0.2,0.1l-17.6,3.8c-0.9,0.1-1.7-0.5-1.9-1.4
			c-0.1-0.5,0.1-1,0.4-1.3l10.2-10.2C31.4,49.4,31.7,49.3,31.8,49.5z"/>
		<path class="st0" d="M22.2,63.5c-1.5,0-2.6-1.2-2.6-2.7c0-0.7,0.3-1.4,0.8-1.9l10.2-10.2c0.6-0.5,1.4-0.5,2,0l8.5,8.5
			c0.6,0.5,0.6,1.4,0,2c-0.2,0.2-0.4,0.3-0.7,0.4l-17.6,3.8C22.6,63.4,22.4,63.5,22.2,63.5L22.2,63.5z M31.5,50.6l-9.8,9.8
			c-0.2,0.2-0.3,0.5-0.1,0.8c0.1,0.3,0.4,0.4,0.7,0.3l16.5-3.6L31.5,50.6z"/>
		<path class="st1" d="M108-4.5c-6.4-6.2-16.7-6-22.9,0.5c-6.2,6.5-6,16.7,0.5,22.9c5.3,5.1,13.3,6,19.6,2.2L93.8,9.7L108-4.5z"/>
		<path class="st0" d="M96.8,24.4c-9.5,0-17.2-7.7-17.2-17.2S87.3-10,96.8-10c4.4,0,8.7,1.7,11.9,4.8c0.2,0.2,0.3,0.4,0.3,0.7
			s-0.1,0.5-0.3,0.7L95.2,9.7l10.6,10.6c0.4,0.4,0.4,1,0,1.4c-0.1,0.1-0.1,0.1-0.2,0.2C103,23.5,99.9,24.4,96.8,24.4z M96.8-7.9
			c-8.4,0-15.2,6.8-15.1,15.2c0,8.4,6.8,15.2,15.2,15.1c2.3,0,4.6-0.5,6.7-1.6L93.1,10.4c-0.2-0.2-0.3-0.4-0.3-0.7
			c0-0.3,0.1-0.5,0.3-0.7l13.4-13.4C103.8-6.7,100.4-7.9,96.8-7.9L96.8-7.9z"/>
		<path class="st1" d="M108.3-4.2l-0.2-0.2L93.8,9.7L105.1,21c1.1-0.7,2.2-1.5,3.1-2.4C114.6,12.3,114.6,2.1,108.3-4.2L108.3-4.2z"
			/>
		<path class="st0" d="M105.2,22.1c-0.3,0-0.5-0.1-0.7-0.3L93.1,10.4c-0.2-0.2-0.3-0.4-0.3-0.7c0-0.3,0.1-0.5,0.3-0.7l14.2-14.2
			c0.4-0.4,1-0.4,1.4,0L109-5c6.7,6.7,6.7,17.5,0.1,24.3c-1,1-2.1,1.9-3.3,2.6C105.5,22,105.3,22.1,105.2,22.1L105.2,22.1z
			 M95.2,9.7l10.1,10.1c0.8-0.5,1.6-1.2,2.2-1.8c5.7-5.7,6-15,0.5-21L95.2,9.7z"/>
		<path class="st1" d="M87.4,20.7c-2.4-2.4-6.3-2.4-8.7,0L41,58.4l6.3,6.3l39.9-35c2.6-2.2,2.8-6.1,0.6-8.7
			C87.6,20.9,87.5,20.8,87.4,20.7L87.4,20.7z"/>
		<path class="st0" d="M47.2,65.7c-0.3,0-0.5-0.1-0.7-0.3l-6.3-6.3c-0.4-0.4-0.4-1,0-1.4L77.9,20c2.8-2.8,7.3-2.8,10.1,0
			c2.8,2.8,2.8,7.3,0,10.1c-0.1,0.1-0.2,0.2-0.3,0.3l-39.9,35C47.7,65.6,47.5,65.7,47.2,65.7L47.2,65.7z M42.4,58.4l4.9,4.9
			l39.2-34.4c2.2-1.8,2.4-5.1,0.6-7.3c-1.8-2.2-5.1-2.4-7.3-0.6c-0.1,0.1-0.2,0.2-0.4,0.3L42.4,58.4z"/>
		<path class="st1" d="M12.1,101.3c-0.4,0.2-0.6,0.6-0.5,1l1.7,7.2c0.4,1-0.2,2.2-1.3,2.5c-0.8,0.3-1.7,0-2.2-0.6l-11-10.9
			l35.9-35.9l12.4,0.2l8.4,8.4C53.5,74.9,41.4,86.6,12.1,101.3L12.1,101.3z"/>
		<path class="st0" d="M11.3,113c-0.8,0-1.6-0.3-2.1-0.9l-10.9-10.9c-0.2-0.2-0.3-0.4-0.3-0.7c0-0.3,0.1-0.5,0.3-0.7l35.9-35.9
			c0.2-0.2,0.5-0.3,0.7-0.3l12.4,0.2c0.3,0,0.5,0.1,0.7,0.3l8.4,8.4c0.2,0.2,0.3,0.5,0.3,0.8c0,0.3-0.1,0.5-0.4,0.7l-0.7,0.6
			c-10.6,9.3-25,18.6-42.9,27.5l1.7,7.1c0.3,1.3-0.3,2.7-1.5,3.4C12.3,112.9,11.8,113,11.3,113z M0.3,100.5l10.3,10.2
			c0.3,0.5,0.9,0.7,1.4,0.4c0.5-0.3,0.7-0.9,0.4-1.4l-1.7-7.2c-0.2-0.9,0.2-1.7,1-2.1c17.7-8.9,32-18.1,42.5-27.2l-7.4-7.4
			l-11.5-0.2L0.3,100.5z"/>
		<path class="st1" d="M-9.7,109.1l8.6-8.6l12.8,12.8l-20.4-1.4c-0.9-0.1-1.5-0.9-1.4-1.8C-10.1,109.7-10,109.3-9.7,109.1
			L-9.7,109.1z"/>
		<path class="st0" d="M11.7,114.2l-20.5-1.4c-1.5-0.1-2.5-1.4-2.4-2.9c0.1-0.6,0.3-1.2,0.8-1.6l8.6-8.6c0.4-0.4,1-0.4,1.4,0
			l12.8,12.8c0.3,0.3,0.4,0.7,0.2,1.1C12.4,114,12.1,114.2,11.7,114.2L11.7,114.2z M-1.1,101.9l-7.9,7.9c-0.3,0.2-0.3,0.7,0,0.9
			c0.1,0.1,0.2,0.2,0.4,0.2l17.7,1.2L-1.1,101.9z"/>
		<path class="st0" d="M31.2,69.2c-0.6,0-1-0.5-1-1c0-0.3,0.1-0.5,0.3-0.7l9.7-9.7c0.4-0.4,1-0.4,1.4,0l6.3,6.3
			c0.3,0.3,0.4,0.6,0.3,1c-0.1,0.3-0.4,0.6-0.8,0.7l-16,3.4C31.3,69.2,31.2,69.2,31.2,69.2L31.2,69.2z M40.9,59.9l-6.6,6.6l10.8-2.3
			L40.9,59.9z"/>
		<path class="st1" d="M47.1,64.8l-11,2.4c-0.8,0.2-1.6-0.3-1.8-1.1c-0.1-0.5,0-1,0.4-1.4l6.1-6.1L47.1,64.8z"/>
		<path class="st0" d="M35.9,68.2c-1.4,0-2.5-1.1-2.5-2.5c0-0.7,0.3-1.3,0.7-1.8l6.1-6.1c0.4-0.4,1-0.4,1.4,0l6.3,6.3
			c0.3,0.3,0.4,0.6,0.3,1c-0.1,0.3-0.4,0.6-0.8,0.7l-11,2.4C36.2,68.2,36,68.2,35.9,68.2L35.9,68.2z M40.9,59.9l-5.4,5.4
			c-0.2,0.2-0.2,0.4-0.1,0.6c0.1,0.2,0.3,0.3,0.6,0.3l9.2-2L40.9,59.9z"/>
		<path class="st0" d="M108.4,5.4c-0.2-0.6-0.9-0.9-1.5-0.7c-0.6,0.2-0.9,0.9-0.7,1.5c0,0.1,0.1,0.2,0.1,0.3
			c0.6,1.2,0.4,2.7-0.4,3.8c-0.4,0.5-0.3,1.2,0.1,1.6c0.5,0.4,1.2,0.3,1.6-0.2C109.1,9.8,109.4,7.4,108.4,5.4L108.4,5.4z"/>
	</g>
</g>
</svg>
