<?xml version="1.0" encoding="utf-8"?>
<!-- Generator: Adobe Illustrator 21.0.0, SVG Export Plug-In . SVG Version: 6.00 Build 0)  -->
<svg version="1.1" id="Capa_1" xmlns="http://www.w3.org/2000/svg" xmlns:xlink="http://www.w3.org/1999/xlink" x="0px" y="0px"
	 viewBox="0 0 200 200" style="enable-background:new 0 0 200 200;" xml:space="preserve">
<style type="text/css">
	.st0{fill:#68BD45;}
</style>
<g>
	<path class="st0" d="M197.4,89.1L158,20.9c-3.4-5.9-11.8-10.8-18.7-10.8H60.6c-6.8,0-15.2,4.9-18.7,10.8L2.6,89
		c-3.4,5.9-3.4,15.6,0,21.5L42,178.8c3.4,5.9,11.8,10.8,18.7,10.8h78.8c6.8,0,15.2-4.9,18.7-10.8l39.4-68.2
		C200.9,104.7,200.9,95,197.4,89.1z M91.5,47.8c-0.2-4.5,3.4-8.2,7.8-8.4c4.5-0.2,8.2,3.4,8.4,7.8c0,0.2,0,0.4,0,0.6v48.5
		c0.2,4.5-3.4,8.2-7.8,8.4c-4.5,0.2-8.2-3.4-8.4-7.8c0-0.2,0-0.4,0-0.6V47.8z M99.6,151.3c-30.4,0-55-24.7-55-55.1
		c0-17.4,8.2-33.7,22.2-44.1c3.2-2.4,7.7-1.7,10.1,1.5c2.4,3.2,1.7,7.7-1.5,10.1c-18,13.4-21.8,38.8-8.4,56.8s38.8,21.8,56.8,8.4
		c10.3-7.7,16.4-19.8,16.4-32.6c0-12.9-6.1-25-16.5-32.7c-3.2-2.4-3.9-6.9-1.6-10.1c2.4-3.2,6.9-3.9,10.1-1.6l0,0
		c24.5,18.1,29.7,52.5,11.6,77C133.5,143,117.1,151.3,99.6,151.3z"/>
</g>
</svg>
