<?xml version="1.0" encoding="utf-8"?>
<!-- Generator: Adobe Illustrator 21.0.0, SVG Export Plug-In . SVG Version: 6.00 Build 0)  -->
<svg version="1.1" id="Capa_1" xmlns="http://www.w3.org/2000/svg" xmlns:xlink="http://www.w3.org/1999/xlink" x="0px" y="0px"
	 viewBox="0 0 200 200" style="enable-background:new 0 0 200 200;" xml:space="preserve">
<style type="text/css">
	.st0{fill:#3178C6;}
	.st1{fill:#FFFFFF;}
</style>
<g>
	<path class="st0" d="M19.5-1h160.9C191.3-1,200,7.7,200,18.5v160.9c0,10.8-8.7,19.5-19.5,19.5H19.5C8.7,199,0,190.3,0,179.5V18.5
		C0,7.7,8.7-1,19.5-1z"/>
	<path class="st0" d="M19.5-1h160.9C191.3-1,200,7.7,200,18.5v160.9c0,10.8-8.7,19.5-19.5,19.5H19.5C8.7,199,0,190.3,0,179.5V18.5
		C0,7.7,8.7-1,19.5-1z"/>
	<path class="st1" d="M123.8,158.2v19.6c3.2,1.6,6.9,2.9,11.3,3.7c4.3,0.8,8.9,1.2,13.7,1.2c4.7,0,9.1-0.4,13.4-1.3
		c4.2-0.9,7.9-2.4,11.1-4.4c3.2-2.1,5.7-4.7,7.6-8.1c1.9-3.3,2.8-7.4,2.8-12.3c0-3.5-0.5-6.7-1.6-9.3c-1.1-2.7-2.6-5-4.6-7.1
		c-2-2.1-4.4-3.9-7.2-5.6c-2.8-1.6-5.9-3.2-9.4-4.7c-2.6-1.1-4.9-2.1-6.9-3.1c-2-1-3.8-2-5.2-3.1c-1.4-1-2.5-2.1-3.3-3.3
		c-0.8-1.2-1.2-2.5-1.2-3.9c0-1.3,0.3-2.6,1-3.6s1.7-2,2.9-2.8c1.3-0.8,2.8-1.4,4.6-1.8c1.8-0.4,3.9-0.6,6.1-0.6
		c1.6,0,3.4,0.1,5.2,0.4c1.8,0.2,3.6,0.6,5.5,1.1c1.8,0.5,3.6,1.2,5.3,1.9c1.7,0.8,3.3,1.7,4.8,2.7V95.3c-3-1.1-6.2-2-9.8-2.5
		c-3.5-0.5-7.6-0.8-12.1-0.8c-4.6,0-9,0.5-13.2,1.5c-4.2,1-7.8,2.6-11,4.7c-3.2,2.1-5.7,4.8-7.5,8.1c-1.8,3.3-2.8,7.2-2.8,11.8
		c0,5.8,1.7,10.8,5,14.9c3.4,4.1,8.5,7.6,15.3,10.4c2.7,1.1,5.2,2.2,7.5,3.2s4.3,2.2,6,3.3c1.7,1.1,3,2.4,4,3.7
		c1,1.3,1.5,2.9,1.5,4.6c0,1.3-0.3,2.4-0.9,3.5c-0.6,1.1-1.5,2-2.8,2.8c-1.2,0.8-2.8,1.4-4.6,1.9c-1.9,0.4-4,0.7-6.5,0.7
		c-4.2,0-8.4-0.7-12.6-2.2C131.2,163.4,127.4,161.1,123.8,158.2L123.8,158.2z M90.9,110H116v-16H46.1v16h25v71.5h19.9V110z"/>
</g>
</svg>
